<svg xmlns="http://www.w3.org/2000/svg" viewBox="0 0 512 512" width="96" height="96" role="img" aria-label="On-Call Contact">
  <defs>
    <linearGradient id="g" x1="0" x2="1" y1="0" y2="1">
      <stop offset="0%" stop-color="#ff0a6c"/>
      <stop offset="55%" stop-color="#ff1690"/>
      <stop offset="100%" stop-color="#e60073"/>
    </linearGradient>
  </defs>
  <circle cx="256" cy="256" r="240" fill="url(#g)"/>
  <path fill="#fff" d="M332.3 338.6c-14.4 0-34.6-6.2-60.6-18.7-26.1-12.5-46.9-26.1-62.5-40.8-23.9-22.7-39.6-46.9-47.1-72.7-7.5-25.8-5.6-47.5 5.6-65.1 8.3-13 18.4-19.5 30.4-19.5 6.4 0 12.1 1.9 17.2 5.8 5 3.9 8.9 8.7 11.5 14.3l18.1 41.7c1.7 4.2 2.6 8.1 2.6 11.7 0 5.3-1.7 10.2-5.2 14.8-3.5 4.6-8.1 8.8-13.9 12.6l-6.9 4.3c6.1 11.6 15.7 22.7 28.7 33.4 11.1 8.9 21.5 15.4 31.3 19.5l4.3-7.4c3.9-6.5 8.4-11.6 13.6-15.3 5.2-3.7 10.8-5.6 16.8-5.6 4.5 0 9.2.9 14.1 2.8h.2l40.8 19.2c6.1 3.1 11 7.3 14.8 12.6 3.7 5.3 5.6 11 5.6 17.2 0 11.9-6.1 22.2-18.2 31-10.7 7.8-23.3 11.7-37.7 11.7Z"/>
</svg>
