<svg xmlns="http://www.w3.org/2000/svg" width="64" height="64" viewBox="0 0 256 256" fill="none">
<defs><linearGradient id="wa" x1="0" y1="0" x2="256" y2="256" gradientUnits="userSpaceOnUse"><stop stop-color="#25D366"/><stop offset="1" stop-color="#128C7E"/></linearGradient></defs>
<circle cx="128" cy="128" r="120" fill="url(#wa)"/>
<path fill="#fff" d="M128 62c-34.5 0-62.5 27.5-62.5 61.3 0 13.6 4.5 26.3 12.2 36.8l-8 29.3 30.5-8c9.8 6.2 21.3 9.8 33.9 9.8 34.5 0 62.5-27.5 62.5-61.3S162.5 62 128 62zm0 112.2c-11.2 0-21.6-3.3-30.4-9.6l-2.2-1.5-18.1 4.8 4.8-17.5-1.5-2.3c-7.1-9.4-10.8-20.5-10.8-32.1 0-30 24.9-54.4 55.5-54.4 30.6 0 55.5 24.4 55.5 54.4 0 30-24.9 54.4-55.5 54.4zm32.3-40.7c-1.8-.9-10.6-5.2-12.2-5.8-1.6-.6-2.8-.9-4 .9-1.2 1.8-4.6 5.8-5.6 7-1 1.2-2 .9-3.8 0-1.8-.9-7.7-2.8-14.6-8.8-5.4-4.8-9-10.7-10-12.5-1-1.8-.1-2.7.8-3.6.8-.8 1.8-2.1 2.7-3.1.9-1 1.2-1.8 1.8-3 .6-1.2.3-2.3-.1-3.2-.4-.9-4-9.6-5.5-13.2-1.5-3.6-3-3.1-4-.3-.9 2.7-3.6 9.3-4.9 12.5-1.1 2.6-2.2 2.4-4 .9-1.8-1.5-4-3.9-6.1-6.4-2.2-2.6-5-2.2-6.8-1.3-1.8.9-4.9 4.2-4.9 10.2 0 6 4.5 11.8 5.1 12.6.6.9 8.8 14 21.4 19.6 3 1.3 5.3 2.1 7.1 2.7 3 1 5.7.9 7.8.6 2.4-.4 10.6-4.3 12.1-8.5 1.5-4.2 1.5-7.8 1-8.5-.4-.6-1.6-1.2-3.4-2.1z"/>
</svg>